# Blender3D v249 OBJ File: tank002.blend
# www.blender3d.org
mtllib tank-head.mtl
v 2.325415 0.378824 2.532495
v 2.325415 -3.746236 2.532495
v -2.190659 -3.778501 2.532495
v -2.190658 0.378825 2.532495
v 3.194836 0.864256 3.216061
v 3.043975 -3.457933 3.216061
v -2.909222 -3.564795 3.216061
v -3.060079 0.864257 3.216061
v -2.860410 1.812460 3.426365
v -2.892498 -3.549524 3.426365
v 3.027251 -3.460819 3.426365
v 2.995168 1.812458 3.426365
v 2.766793 2.492064 3.576583
v 2.973367 -3.442007 3.576583
v -2.838614 -3.495524 3.576583
v -2.632037 2.492066 3.576583
v -2.351391 2.233068 4.117366
v -2.747892 -3.345529 3.846974
v 2.882646 -3.337888 3.846974
v 2.486148 2.233066 4.117366
v 2.368268 1.874229 4.537975
v 2.368265 -2.587475 4.447845
v -2.233512 -2.587473 4.447845
v -2.233511 1.874231 4.537975
v 3.150909 -3.709718 2.744401
v 3.194835 0.529308 2.744401
v -3.016154 -3.774619 2.744401
v -3.060078 0.529309 2.744401
v -0.384802 -3.638377 2.532496
v -0.384801 0.378824 2.532496
v -0.508999 -4.046149 3.216061
v -0.535071 0.864257 3.216061
v -0.588987 1.812458 3.426365
v -0.596104 -4.179393 3.426365
v -0.584156 -4.179595 3.576583
v -0.538352 2.492064 3.576583
v -0.412582 2.492065 4.117366
v -0.481114 -4.178816 3.846974
v -0.392209 -3.538500 4.262416
v -0.392208 2.339977 4.947035
v -0.527480 -3.764784 2.744401
v -0.535071 0.529308 2.744401
v 0.095240 -3.638377 2.532496
v 0.095241 0.378824 2.532496
v 0.123804 -4.046141 3.216061
v 0.129803 0.864256 3.216061
v 0.209470 1.812458 3.426365
v 0.211104 -4.178817 3.426365
v 0.208357 -4.178817 3.576583
v 0.197824 2.492064 3.576583
v 0.101630 2.492065 4.117366
v 0.117391 -4.178816 3.846974
v 0.096943 -3.521878 4.262416
v 0.096944 2.339977 4.947035
v 0.128056 -3.764784 2.744401
v 0.129803 0.529308 2.744401
v 0.011654 -10.481186 3.665005
v 0.071187 -10.481186 3.473930
v 0.072985 -10.481186 3.367777
v 0.015851 -10.348511 3.219163
v -0.380041 -10.481186 3.665005
v -0.447477 -10.481184 3.473930
v -0.455297 -10.481184 3.367777
v -0.398290 -10.348511 3.219163
v -0.332418 -10.481020 3.284821
v -0.371558 -10.572033 3.386769
v -0.366194 -10.572033 3.459589
v -0.357163 -10.572033 3.590666
v -0.048320 -10.481020 3.284821
v -0.009160 -10.572033 3.386769
v -0.010393 -10.572033 3.459589
v -0.012470 -10.572033 3.590666
v 0.021350 -4.804429 3.734247
v 0.083701 -4.804429 3.548760
v 0.085586 -4.804429 3.445712
v 0.086171 -4.713414 3.301444
v -0.389222 -4.804429 3.734247
v -0.459959 -4.804429 3.548760
v -0.468155 -4.804429 3.445712
v -0.470698 -4.713414 3.301444
v 0.117390 -6.668253 3.870489
v 0.208355 -6.668253 3.550103
v 0.211103 -6.668253 3.372111
v 0.123803 -6.535578 3.122922
v -0.481115 -6.668252 3.870489
v -0.509000 -6.535578 3.181010
v -0.584157 -6.668252 3.550103
v -0.596105 -6.668252 3.372111
v 0.117390 -7.507099 3.856495
v 0.208355 -7.507099 3.536109
v 0.211103 -7.507099 3.358117
v 0.123803 -7.374423 3.108927
v -0.481115 -7.507098 3.856495
v -0.509000 -7.374423 3.108927
v -0.584158 -7.507098 3.536109
v -0.596105 -7.507098 3.358117
v 0.117390 -6.481545 3.814552
v 0.208356 -6.481545 3.544161
v 0.211103 -6.481545 3.393943
v 0.123804 -6.348870 3.183639
v -0.481115 -6.481545 3.814552
v -0.509000 -6.348870 3.183639
v -0.584157 -6.481544 3.544161
v -0.596105 -6.481544 3.393943
v 0.011655 -7.685544 3.692821
v 0.071187 -7.685544 3.501746
v 0.072986 -7.685544 3.395593
v 0.015852 -7.552869 3.246979
v -0.380040 -7.685544 3.692821
v -0.398289 -7.552869 3.246979
v -0.447477 -7.685543 3.501746
v -0.455296 -7.685543 3.395593
vt 0.096584 0.560522
vt 0.310840 0.560522
vt 0.310660 0.673802
vt 0.063529 0.673802
vt 0.656219 0.560522
vt 0.866076 0.560522
vt 0.899131 0.673801
vt 0.655666 0.673801
vt 0.920563 0.754716
vt 0.655048 0.754715
vt 0.309867 0.754716
vt 0.042097 0.754716
vt 0.305851 0.900361
vt 0.038603 1.046006
vt 0.924057 1.046006
vt 0.657149 0.900361
vt 0.920354 1.272565
vt 0.683027 1.224017
vt 0.279633 1.224017
vt 0.042306 1.272565
vt 0.875302 0.192322
vt 0.854252 0.306464
vt 0.648906 0.306464
vt 0.621539 0.192322
vt 0.342416 0.192322
vt 0.316210 0.306464
vt 0.108408 0.306464
vt 0.087358 0.192322
vt 0.443364 0.192322
vt -0.019350 0.192322
vt -0.016678 0.560522
vt -0.025010 0.673802
vt 0.441183 0.560522
vt 0.437680 0.673801
vt 0.438437 0.754715
vt -0.032298 0.754716
vt -0.037440 1.046006
vt 0.444991 0.900361
vt 0.440818 1.124137
vt -0.037554 1.492904
vt 0.434740 0.306464
vt -0.010661 0.306464
vt 1.017598 0.192322
vt 0.483708 0.192322
vt 1.520656 0.192322
vt 1.057942 0.192322
vt 1.015685 0.560522
vt 1.012902 0.673802
vt 1.060614 0.560522
vt 1.052281 0.673802
vt 0.485333 0.560522
vt 0.490987 0.673801
vt 0.490803 0.754715
vt 1.014552 0.754716
vt 1.044993 0.754716
vt 1.018551 1.046006
vt 1.039851 1.046006
vt 0.484694 0.900361
vt 0.484009 1.124137
vt 1.018699 1.492904
vt 1.039738 1.492904
vt 1.518109 1.124137
vt 0.486202 0.306464
vt 1.015020 0.306464
vt 1.066631 0.306464
vt 0.471217 0.642243
vt 0.472181 0.562193
vt 0.473591 0.597559
vt 0.472921 0.652473
vt 0.471368 0.699422
vt 0.473023 0.691697
vt 0.472671 0.802343
vt 0.473196 0.762301
vt 0.480317 0.562193
vt 0.479089 0.597559
vt 0.480251 0.802343
vt 0.479799 0.762301
vt 0.481439 0.642243
vt 0.479863 0.652473
vt 0.481404 0.699422
vt 0.479839 0.691697
vt 0.478844 0.839641
vt 0.482212 0.739729
vt 0.482313 0.684222
vt 0.482375 0.606513
vt 0.456838 0.839641
vt 0.451710 0.606513
vt 0.453107 0.739729
vt 0.452677 0.684222
vt 0.483032 0.913027
vt 0.482789 0.905488
vt 0.485442 0.732914
vt 0.486126 0.740452
vt 0.485522 0.637039
vt 0.486220 0.644577
vt 0.483014 0.502815
vt 0.483302 0.510353
vt 0.462738 0.913027
vt 0.465375 0.905489
vt 0.464185 0.502815
vt 0.461278 0.541642
vt 0.459281 0.740452
vt 0.462400 0.732914
vt 0.458881 0.644577
vt 0.462056 0.637039
vt 0.483097 0.882896
vt 0.486311 0.737251
vt 0.486408 0.656337
vt 0.483380 0.543058
vt 0.462029 0.882896
vt 0.460492 0.543058
vt 0.458442 0.737251
vt 0.458028 0.656337
vt 0.479752 0.817326
vt 0.481438 0.714405
vt 0.481489 0.657226
vt 0.479839 0.577175
vt 0.468685 0.817326
vt 0.467878 0.577175
vt 0.466788 0.714405
vt 0.466568 0.657226
vn -0.879024 -0.010663 0.476658
vn 0.879009 -0.010881 0.476680
vn 0.746904 0.015905 0.664742
vn -0.747591 0.015721 0.663974
vn -0.906691 0.037455 0.420129
vn 0.905868 0.037569 0.421892
vn 0.852754 0.014940 0.522099
vn -0.852803 0.014934 0.522020
vn 0.242712 -0.001275 -0.970097
vn 0.991716 -0.022564 0.126453
vn -0.242688 -0.001260 -0.970104
vn -0.991883 -0.022123 0.125213
vn 0.000000 -0.000000 -1.000000
vn 0.000000 0.216531 -0.976276
vn -0.219827 -0.929107 -0.297383
vn -0.270167 -0.935730 0.226757
vn 0.000000 0.215827 -0.976432
vn -0.061986 0.965110 0.254403
vn -0.297583 -0.886701 0.353844
vn -0.189414 -0.522488 0.831342
vn -0.213910 0.895753 0.389703
vn -0.070229 -0.074532 0.994743
vn 0.034158 -0.978213 -0.204774
vn -0.095813 -0.993429 -0.062602
vn 0.000000 0.815326 -0.579002
vn 0.000000 0.815327 -0.579001
vn 0.209461 -0.919867 -0.331620
vn 0.250774 -0.962057 0.107514
vn 0.050567 0.967128 0.249213
vn 0.000000 1.000000 -0.000002
vn 0.264368 -0.926658 0.267234
vn 0.008247 -0.539639 0.841856
vn 0.159002 -0.537576 0.828089
vn 0.174932 0.905293 0.387096
vn 0.000000 0.983610 0.180308
vn 0.056721 -0.074716 0.995590
vn 0.001968 -0.115841 0.993266
vn -0.009870 -0.982061 -0.188303
vn 0.000000 -0.858807 -0.512300
vn 0.107593 -0.994023 -0.018481
vn 0.000005 -0.858803 -0.512305
vn -0.460316 -0.567163 -0.682961
vn -0.739853 -0.670557 0.054497
vn -0.808129 -0.556897 0.191818
vn 0.000000 -0.443982 -0.896035
vn 0.000000 -0.633288 0.773916
vn 0.465752 -0.563646 -0.682186
vn 0.742989 -0.669185 0.012587
vn 0.818587 -0.552638 0.156549
vn -0.979803 0.014889 -0.199412
vn -0.999705 0.016593 -0.017727
vn -0.985600 0.018485 0.168082
vn 0.000000 0.024887 -0.999690
vn 0.000000 -0.002882 0.999996
vn 0.969572 0.015505 -0.244313
vn 0.996889 0.017438 -0.076862
vn 0.986812 0.019040 0.160749
vn 0.000000 -0.845759 -0.533566
vn 0.000000 -1.000000 -0.000000
vn 0.961968 -0.004557 0.273126
vn 0.999881 -0.000258 0.015436
vn 0.944651 0.005472 -0.328031
vn -0.000000 -0.016681 0.999861
vn -0.045789 0.051186 -0.997639
vn -0.951963 -0.005107 0.306169
vn -0.997754 -0.001117 0.066973
vn -0.933441 0.018382 -0.358259
vn 0.947792 -0.004490 0.318857
vn 0.954575 0.048712 0.293962
vn 0.999833 -0.000258 0.018289
vn 0.999860 -0.000713 0.016742
vn 0.924765 0.005357 -0.380502
vn 0.945293 0.070416 -0.318532
vn -0.000000 -0.014078 0.999901
vn 0.000000 0.286992 0.957933
vn -0.000000 0.014078 -0.999901
vn -0.045205 0.167078 -0.984907
vn -0.934433 -0.005014 0.356105
vn -0.942797 0.054499 0.328881
vn -0.996852 -0.001116 0.079283
vn -0.997356 -0.003090 0.072611
vn -0.925066 0.005348 -0.379768
vn -0.923007 0.025152 -0.383960
vn 0.745620 -0.629217 0.219399
vn 0.954729 -0.002960 0.297461
vn 0.791806 -0.610641 0.012668
vn 0.999857 -0.000169 0.016938
vn 0.489757 -0.632699 -0.599858
vn 0.934449 0.003543 -0.356080
vn -0.000001 -0.675946 0.736951
vn -0.000000 -0.009949 0.999950
vn 0.000000 -0.611895 -0.790939
vn 0.000000 0.009949 -0.999951
vn -0.738104 -0.628233 0.246021
vn -0.942988 -0.003311 0.332811
vn -0.788492 -0.612594 0.054852
vn -0.997298 -0.000731 0.073460
vn -0.484437 -0.636553 -0.600101
vn -0.934712 0.003536 -0.355388
usemtl Material.002
s off
f 8/1/1 7/2/1 10/3/1 9/4/1
f 6/5/2 5/6/2 12/7/2 11/8/2
f 11/8/3 12/7/3 13/9/3 14/10/3
f 9/4/4 10/3/4 15/11/4 16/12/4
f 16/12/5 15/11/5 18/13/5 17/14/5
f 14/10/6 13/9/6 20/15/6 19/16/6
f 19/16/7 20/15/7 21/17/7 22/18/7
f 17/14/8 18/13/8 23/19/8 24/20/8
f 1/21/9 26/22/9 25/23/9 2/24/9
f 26/22/10 5/6/10 6/5/10 25/23/10
f 3/25/11 27/26/11 28/27/11 4/28/11
f 27/26/12 7/2/12 8/1/12 28/27/12
f 29/29/13 3/25/13 4/28/13 30/30/13
f 32/31/14 8/1/14 9/4/14 33/32/14
f 7/2/15 31/33/15 34/34/15 10/3/15
f 10/3/16 34/34/16 35/35/16 15/11/16
f 33/32/17 9/4/17 16/12/17 36/36/17
f 36/36/18 16/12/18 17/14/18 37/37/18
f 15/11/19 35/35/19 38/38/19 18/13/19
f 18/13/20 38/38/20 39/39/20 23/19/20
f 37/37/21 17/14/21 24/20/21 40/40/21
f 40/40/22 24/20/22 23/19/22 39/39/22
f 41/41/23 27/26/23 3/25/23 29/29/23
f 31/33/24 7/2/24 27/26/24 41/41/24
f 42/42/25 28/27/25 8/1/25 32/31/25
f 30/30/26 4/28/26 28/27/26 42/42/26
f 44/43/13 1/21/13 2/24/13 43/44/13
f 43/44/13 29/45/13 30/46/13 44/43/13
f 5/6/14 46/47/14 47/48/14 12/7/14
f 46/47/14 32/49/14 33/50/14 47/48/14
f 45/51/27 6/5/27 11/8/27 48/52/27
f 48/52/28 11/8/28 14/10/28 49/53/28
f 12/7/17 47/48/17 50/54/17 13/9/17
f 47/48/17 33/50/17 36/55/17 50/54/17
f 13/9/29 50/54/29 51/56/29 20/15/29
f 50/54/30 36/55/30 37/57/30 51/56/30
f 49/53/31 14/10/31 19/16/31 52/58/31
f 38/38/32 52/58/32 53/59/32 39/39/32
f 52/58/33 19/16/33 22/18/33 53/59/33
f 20/15/34 51/56/34 54/60/34 21/17/34
f 51/56/35 37/57/35 40/61/35 54/60/35
f 21/17/36 54/60/36 53/59/36 22/18/36
f 54/60/37 40/61/37 39/62/37 53/59/37
f 25/23/38 55/63/38 43/44/38 2/24/38
f 55/63/39 41/41/39 29/29/39 43/44/39
f 6/5/40 45/51/40 55/63/40 25/23/40
f 45/51/41 31/33/41 41/41/41 55/63/41
f 26/22/25 56/64/25 46/47/25 5/6/25
f 56/64/25 42/65/25 32/49/25 46/47/25
f 1/21/25 44/43/25 56/64/25 26/22/25
f 44/43/25 30/46/25 42/65/25 56/64/25
f 63/66/42 64/67/42 65/68/42 66/69/42
f 62/70/43 63/66/43 66/69/43 67/71/43
f 61/72/44 62/70/44 67/71/44 68/73/44
f 64/67/45 60/74/45 69/75/45 65/68/45
f 57/76/46 61/72/46 68/73/46 72/77/46
f 60/74/47 59/78/47 70/79/47 69/75/47
f 59/78/48 58/80/48 71/81/48 70/79/48
f 58/80/49 57/76/49 72/77/49 71/81/49
f 71/81/50 72/77/50 73/82/50 74/83/50
f 70/79/51 71/81/51 74/83/51 75/84/51
f 69/75/52 70/79/52 75/84/52 76/85/52
f 72/77/53 68/73/53 77/86/53 73/82/53
f 65/68/54 69/75/54 76/85/54 80/87/54
f 68/73/55 67/71/55 78/88/55 77/86/55
f 67/71/56 66/69/56 79/89/56 78/88/56
f 66/69/57 65/68/57 80/87/57 79/89/57
f 80/87/58 76/85/58 75/84/58 79/89/58
f 79/89/59 75/84/59 74/83/59 78/88/59
f 78/88/59 74/83/59 73/82/59 77/86/59
f 81/90/60 89/91/60 90/92/60 82/93/60
f 82/93/61 90/92/61 91/94/61 83/95/61
f 83/95/62 91/94/62 92/96/62 84/97/62
f 85/98/63 93/99/63 89/91/63 81/90/63
f 84/97/64 92/96/64 94/100/64 86/101/64
f 87/102/65 95/103/65 93/99/65 85/98/65
f 88/104/66 96/105/66 95/103/66 87/102/66
f 86/101/67 94/100/67 96/105/67 88/104/67
f 52/58/68 97/106/68 98/107/68 49/53/68
f 97/106/69 81/90/69 82/93/69 98/107/69
f 49/53/70 98/107/70 99/108/70 48/52/70
f 98/107/71 82/93/71 83/95/71 99/108/71
f 48/52/72 99/108/72 100/109/72 45/51/72
f 99/108/73 83/95/73 84/97/73 100/109/73
f 38/38/74 101/110/74 97/106/74 52/58/74
f 101/110/75 85/98/75 81/90/75 97/106/75
f 45/51/76 100/109/76 102/111/76 31/33/76
f 100/109/77 84/97/77 86/101/77 102/111/77
f 35/35/78 103/112/78 101/110/78 38/38/78
f 103/112/79 87/102/79 85/98/79 101/110/79
f 34/34/80 104/113/80 103/112/80 35/35/80
f 104/113/81 88/104/81 87/102/81 103/112/81
f 31/33/82 102/111/82 104/113/82 34/34/82
f 102/111/83 86/101/83 88/104/83 104/113/83
f 89/91/84 105/114/84 106/115/84 90/92/84
f 105/114/85 57/76/85 58/80/85 106/115/85
f 90/92/86 106/115/86 107/116/86 91/94/86
f 106/115/87 58/80/87 59/78/87 107/116/87
f 91/94/88 107/116/88 108/117/88 92/96/88
f 107/116/89 59/78/89 60/74/89 108/117/89
f 93/99/90 109/118/90 105/114/90 89/91/90
f 109/118/91 61/72/91 57/76/91 105/114/91
f 92/96/92 108/117/92 110/119/92 94/100/92
f 108/117/93 60/74/93 64/67/93 110/119/93
f 95/103/94 111/120/94 109/118/94 93/99/94
f 111/120/95 62/70/95 61/72/95 109/118/95
f 96/105/96 112/121/96 111/120/96 95/103/96
f 112/121/97 63/66/97 62/70/97 111/120/97
f 94/100/98 110/119/98 112/121/98 96/105/98
f 110/119/99 64/67/99 63/66/99 112/121/99
